<svg id="레이어_1" data-name="레이어 1" xmlns="http://www.w3.org/2000/svg" viewBox="0 0 36 36"><defs><style>.cls-1{fill:#030404;}</style></defs><title>instagram</title><path d="M18,0c-4.89,0-5.5,0-7.42.11A13.1,13.1,0,0,0,6.21,1,8.85,8.85,0,0,0,3,3,8.88,8.88,0,0,0,.94,6.21a13.38,13.38,0,0,0-.83,4.37C0,12.5,0,13.11,0,18s0,5.5.11,7.42a13.38,13.38,0,0,0,.83,4.37A8.88,8.88,0,0,0,3,33a8.88,8.88,0,0,0,3.19,2.08,13.38,13.38,0,0,0,4.37.83C12.5,36,13.11,36,18,36s5.5,0,7.42-.11a13.38,13.38,0,0,0,4.37-.83,9.24,9.24,0,0,0,5.27-5.27,13.38,13.38,0,0,0,.83-4.37C36,23.5,36,22.89,36,18s0-5.5-.11-7.42a13.38,13.38,0,0,0-.83-4.37A8.88,8.88,0,0,0,33,3,8.85,8.85,0,0,0,29.79,1,13.1,13.1,0,0,0,25.42.11C23.5,0,22.89,0,18,0Zm0,3.24c4.81,0,5.38,0,7.27.11A9.93,9.93,0,0,1,28.62,4a5.48,5.48,0,0,1,2.07,1.34A5.48,5.48,0,0,1,32,7.38a9.93,9.93,0,0,1,.62,3.35c.09,1.89.11,2.46.11,7.27s0,5.38-.11,7.27A9.93,9.93,0,0,1,32,28.62,5.89,5.89,0,0,1,28.62,32a9.93,9.93,0,0,1-3.35.62c-1.89.09-2.46.11-7.27.11s-5.38,0-7.27-.11A9.93,9.93,0,0,1,7.38,32a5.48,5.48,0,0,1-2.07-1.34A5.48,5.48,0,0,1,4,28.62a9.93,9.93,0,0,1-.62-3.35c-.09-1.89-.11-2.46-.11-7.27s0-5.38.11-7.27A9.93,9.93,0,0,1,4,7.38,5.48,5.48,0,0,1,5.31,5.31,5.48,5.48,0,0,1,7.38,4a9.93,9.93,0,0,1,3.35-.62C12.62,3.26,13.19,3.24,18,3.24Z"/><path class="cls-1" d="M18,24a6,6,0,1,1,6-6A6,6,0,0,1,18,24ZM18,8.76A9.24,9.24,0,1,0,27.24,18,9.24,9.24,0,0,0,18,8.76Z"/><path class="cls-1" d="M29.77,8.39a2.16,2.16,0,1,1-2.16-2.16A2.16,2.16,0,0,1,29.77,8.39Z"/></svg>