<svg id="레이어_1" data-name="레이어 1" xmlns="http://www.w3.org/2000/svg" viewBox="0 0 38.61 35.84"><title>kakaotalk</title><path d="M19.4,0C.79-.1-7.84,19.55,9.08,28.28c-.3,1-1.91,6.6-2,7a.44.44,0,0,0,.63.49c.61-.09,7.09-4.64,8.21-5.43C42.78,33.59,48.07,1.23,19.4,0ZM9.78,19.58a1.12,1.12,0,0,1-2.24,0V12.93H5.79a1.1,1.1,0,0,1,0-2.2h5.74a1.1,1.1,0,0,1,0,2.2H9.78Zm9.41.9c-.5.27-1.47.2-1.64-.34L17,18.69H13.58L13,20.14c-.17.54-1.15.61-1.65.34-.31-.14-.6-.53-.26-1.59l2.68-7a1.56,1.56,0,0,1,3,0l2.68,7.05C19.8,20,19.5,20.34,19.19,20.48Zm5.67,0h-3.6a1.05,1.05,0,0,1-1.07-1V11.85a1.15,1.15,0,0,1,2.29,0v6.58h2.38A1,1,0,1,1,24.86,20.49Zm8.76-.85a1.12,1.12,0,0,1-2,.52L29,16.68l-.38.39v2.45a1.13,1.13,0,0,1-2.25,0V11.85a1.12,1.12,0,0,1,2.24,0v2.41l3.13-3.12a1,1,0,0,1,1.47,1.47l-2.55,2.55,2.76,3.66A1,1,0,0,1,33.62,19.64Z"/><polygon points="14.17 16.71 16.41 16.71 15.29 13.53 14.17 16.71"/></svg>